<svg width="512" height="512" viewBox="0 0 512 512" fill="none" xmlns="http://www.w3.org/2000/svg">
  <path d="M256 32C256 32 128 160 128 320C128 390.69 185.31 448 256 448C326.69 448 384 390.69 384 320C384 160 256 32 256 32Z" fill="#ef4444"/>
  <path d="M256 416C240 416 224 400 224 384C224 368 240 352 256 352C272 352 288 368 288 384C288 400 272 416 256 416Z" fill="#000000" fill-opacity="0.1"/>
  <path d="M160 416L128 480H224L208 416H160Z" fill="#ef4444"/>
  <path d="M352 416L384 480H288L304 416H352Z" fill="#ef4444"/>
</svg>
